<svg width="100%" viewBox="0 0 100 100" xmlns="http://www.w3.org/2000/svg">
  <circle cx="50" cy="50" r="48" fill="#F5F0FF"/>
  <ellipse cx="50" cy="68" rx="32" ry="20" fill="#6A1B9A"/>
  <circle cx="50" cy="40" r="22" fill="#FFE0B2"/>
  <ellipse cx="41" cy="38" rx="7" ry="6" fill="white"/>
  <ellipse cx="59" cy="38" rx="7" ry="6" fill="white"/>
  <circle cx="41" cy="38" r="5" fill="#311B92"/>
  <circle cx="59" cy="38" r="5" fill="#311B92"/>
  <circle cx="43" cy="36" r="1.5" fill="white"/>
  <circle cx="61" cy="36" r="1.5" fill="white"/>
  <rect x="34" y="33" width="14" height="2.5" rx="1.2" fill="#4A148C"/>
  <rect x="52" y="33" width="14" height="2.5" rx="1.2" fill="#4A148C"/>
  <rect x="48" y="34" width="4" height="2" fill="#4A148C"/>
  <path d="M43 50 Q50 57 57 50" stroke="#AA6633" stroke-width="2.5" fill="none" stroke-linecap="round"/>
  <rect x="29" y="20" width="42" height="8" rx="2" fill="#4A148C"/>
  <polygon points="50,11 29,20 71,20" fill="#4A148C"/>
  <rect x="67" y="20" width="3" height="12" fill="#7B1FA2"/>
  <circle cx="68" cy="33" r="4" fill="#F5A623"/>
  <rect x="68" y="57" width="16" height="12" rx="2" fill="#F5A623"/>
  <rect x="69" y="58" width="14" height="10" rx="1" fill="#FFD54F"/>
  <rect x="70" y="60" width="5" height="1.5" fill="#5D4037"/>
  <rect x="70" y="63" width="8" height="1.5" fill="#5D4037"/>
  <circle cx="78" cy="65" r="3" fill="#F5A623"/>
</svg>