<svg width="100%" viewBox="0 0 100 100" xmlns="http://www.w3.org/2000/svg">
  <circle cx="50" cy="50" r="48" fill="#FFF8E1"/>
  <ellipse cx="50" cy="68" rx="32" ry="20" fill="#F57F17"/>
  <ellipse cx="30" cy="55" rx="10" ry="22" fill="#3E1F00"/>
  <ellipse cx="70" cy="55" rx="10" ry="22" fill="#3E1F00"/>
  <circle cx="50" cy="40" r="22" fill="#FFD1A1"/>
  <circle cx="42" cy="39" r="5" fill="#3E1F00"/>
  <circle cx="58" cy="39" r="5" fill="#3E1F00"/>
  <circle cx="44" cy="37" r="1.5" fill="white"/>
  <circle cx="60" cy="37" r="1.5" fill="white"/>
  <ellipse cx="37" cy="45" rx="5" ry="3" fill="#F4A58A" opacity="0.6"/>
  <ellipse cx="63" cy="45" rx="5" ry="3" fill="#F4A58A" opacity="0.6"/>
  <path d="M43 50 Q50 58 57 50" stroke="#C0775A" stroke-width="2.5" fill="none" stroke-linecap="round"/>
  <ellipse cx="50" cy="20" rx="22" ry="10" fill="#3E1F00"/>
  <rect x="29" y="20" width="42" height="8" rx="2" fill="#E65100"/>
  <polygon points="50,11 29,20 71,20" fill="#E65100"/>
  <rect x="67" y="20" width="3" height="12" fill="#F57F17"/>
  <circle cx="68" cy="33" r="4" fill="#F5A623"/>
</svg>